<mxfile host="Electron" agent="Mozilla/5.0 (Windows NT 10.0; Win64; x64) AppleWebKit/537.36 (KHTML, like Gecko) draw.io/24.7.17 Chrome/128.0.6613.36 Electron/32.0.1 Safari/537.36" version="24.7.17">
  <diagram name="Page-1" id="1dED_qBC4045xkj5illF">
    <mxGraphModel dx="1036" dy="606" grid="1" gridSize="10" guides="1" tooltips="1" connect="1" arrows="1" fold="1" page="1" pageScale="1" pageWidth="850" pageHeight="1100" math="0" shadow="0">
      <root>
        <mxCell id="0" />
        <mxCell id="1" parent="0" />
        <mxCell id="62nENniNwDiZzxedx9Yp-1" value="&lt;br&gt;&lt;div&gt;&lt;br&gt;&lt;/div&gt;" style="rounded=0;whiteSpace=wrap;html=1;fillColor=default;dashed=1;" vertex="1" parent="1">
          <mxGeometry x="41" y="120" width="120" height="400" as="geometry" />
        </mxCell>
        <mxCell id="62nENniNwDiZzxedx9Yp-3" value="" style="rounded=0;whiteSpace=wrap;html=1;fillColor=default;dashed=1;" vertex="1" parent="1">
          <mxGeometry x="210" y="120" width="520" height="400" as="geometry" />
        </mxCell>
        <mxCell id="62nENniNwDiZzxedx9Yp-4" value="&lt;font style=&quot;font-size: 20px;&quot;&gt;Sources&lt;/font&gt;" style="text;html=1;align=center;verticalAlign=middle;whiteSpace=wrap;rounded=0;strokeColor=none;fillColor=default;" vertex="1" parent="1">
          <mxGeometry x="61" y="100" width="80" height="30" as="geometry" />
        </mxCell>
        <mxCell id="62nENniNwDiZzxedx9Yp-5" value="&lt;font style=&quot;font-size: 21px;&quot;&gt;Data Warehouse&lt;/font&gt;" style="text;html=1;align=center;verticalAlign=middle;whiteSpace=wrap;rounded=0;fillColor=default;" vertex="1" parent="1">
          <mxGeometry x="330" y="100" width="260" height="30" as="geometry" />
        </mxCell>
        <mxCell id="62nENniNwDiZzxedx9Yp-6" value="" style="rounded=0;whiteSpace=wrap;html=1;fillColor=default;dashed=1;" vertex="1" parent="1">
          <mxGeometry x="780" y="120" width="120" height="400" as="geometry" />
        </mxCell>
        <mxCell id="62nENniNwDiZzxedx9Yp-7" value="&lt;font style=&quot;font-size: 20px;&quot;&gt;Consumer&lt;/font&gt;" style="text;html=1;align=center;verticalAlign=middle;whiteSpace=wrap;rounded=0;fillColor=default;" vertex="1" parent="1">
          <mxGeometry x="785" y="100" width="110" height="30" as="geometry" />
        </mxCell>
        <mxCell id="62nENniNwDiZzxedx9Yp-8" value="&lt;font style=&quot;font-size: 15px;&quot;&gt;&lt;b&gt;Bronze Layer&lt;/b&gt;&lt;/font&gt;" style="rounded=0;whiteSpace=wrap;html=1;fillColor=#ffe6cc;strokeColor=#d79b00;" vertex="1" parent="1">
          <mxGeometry x="220" y="135" width="120" height="20" as="geometry" />
        </mxCell>
        <mxCell id="62nENniNwDiZzxedx9Yp-10" value="&lt;div&gt;&lt;br&gt;&lt;/div&gt;&lt;div&gt;&lt;br&gt;&lt;/div&gt;&lt;div&gt;&lt;br&gt;&lt;/div&gt;&lt;div&gt;&lt;br&gt;&lt;/div&gt;&lt;div&gt;&lt;br&gt;&lt;/div&gt;&lt;div&gt;&lt;br&gt;&lt;/div&gt;&lt;div&gt;&lt;br&gt;&lt;/div&gt;&lt;div&gt;&lt;br&gt;&lt;/div&gt;&lt;div&gt;&lt;br&gt;&lt;/div&gt;" style="rounded=0;whiteSpace=wrap;html=1;fillColor=none;strokeColor=#d79b00;" vertex="1" parent="1">
          <mxGeometry x="220" y="170" width="120" height="340" as="geometry" />
        </mxCell>
        <mxCell id="62nENniNwDiZzxedx9Yp-11" value="&lt;font style=&quot;font-size: 15px;&quot;&gt;&lt;b&gt;Silver Layer&lt;/b&gt;&lt;/font&gt;" style="rounded=0;whiteSpace=wrap;html=1;fillColor=#f5f5f5;strokeColor=#666666;fontColor=#333333;" vertex="1" parent="1">
          <mxGeometry x="370" y="135" width="200" height="20" as="geometry" />
        </mxCell>
        <mxCell id="62nENniNwDiZzxedx9Yp-12" value="&lt;div&gt;&lt;br&gt;&lt;/div&gt;&lt;div&gt;&lt;br&gt;&lt;/div&gt;&lt;div&gt;&lt;br&gt;&lt;/div&gt;&lt;div&gt;&lt;br&gt;&lt;/div&gt;&lt;div&gt;&lt;br&gt;&lt;/div&gt;&lt;div&gt;&lt;br&gt;&lt;/div&gt;&lt;div&gt;&lt;br&gt;&lt;/div&gt;&lt;div&gt;&lt;br&gt;&lt;/div&gt;&lt;div&gt;&lt;br&gt;&lt;/div&gt;&lt;div&gt;&lt;br&gt;&lt;/div&gt;&lt;div&gt;&lt;br&gt;&lt;/div&gt;&lt;div&gt;&lt;br&gt;&lt;/div&gt;&lt;div&gt;&lt;br&gt;&lt;/div&gt;&lt;div&gt;&lt;br&gt;&lt;/div&gt;&lt;div&gt;&lt;br&gt;&lt;/div&gt;&lt;div&gt;&lt;br&gt;&lt;/div&gt;" style="rounded=0;whiteSpace=wrap;html=1;fillColor=none;strokeColor=#666666;fontColor=#333333;" vertex="1" parent="1">
          <mxGeometry x="370" y="172.5" width="200" height="337.5" as="geometry" />
        </mxCell>
        <mxCell id="62nENniNwDiZzxedx9Yp-13" value="&lt;font style=&quot;font-size: 15px;&quot;&gt;&lt;b&gt;Gold Layer&lt;/b&gt;&lt;/font&gt;" style="rounded=0;whiteSpace=wrap;html=1;fillColor=#fff2cc;strokeColor=#d6b656;" vertex="1" parent="1">
          <mxGeometry x="600" y="135" width="120" height="20" as="geometry" />
        </mxCell>
        <mxCell id="62nENniNwDiZzxedx9Yp-14" value="" style="rounded=0;whiteSpace=wrap;html=1;fillColor=none;strokeColor=#d6b656;" vertex="1" parent="1">
          <mxGeometry x="600" y="172.5" width="120" height="337.5" as="geometry" />
        </mxCell>
        <mxCell id="62nENniNwDiZzxedx9Yp-16" value="" style="image;aspect=fixed;html=1;points=[];align=center;fontSize=12;image=img/lib/azure2/general/Folder_Blank.svg;" vertex="1" parent="1">
          <mxGeometry x="66.5" y="155" width="69" height="56.00000000000001" as="geometry" />
        </mxCell>
        <mxCell id="62nENniNwDiZzxedx9Yp-17" value="" style="shape=singleArrow;whiteSpace=wrap;html=1;fillColor=#dae8fc;strokeColor=#6c8ebf;" vertex="1" parent="1">
          <mxGeometry x="161" y="280" width="69" height="50" as="geometry" />
        </mxCell>
        <mxCell id="62nENniNwDiZzxedx9Yp-18" value="" style="shape=singleArrow;whiteSpace=wrap;html=1;fillColor=#dae8fc;strokeColor=#6c8ebf;" vertex="1" parent="1">
          <mxGeometry x="330" y="285" width="70" height="50" as="geometry" />
        </mxCell>
        <mxCell id="62nENniNwDiZzxedx9Yp-19" value="" style="shape=singleArrow;whiteSpace=wrap;html=1;fillColor=#dae8fc;strokeColor=#6c8ebf;" vertex="1" parent="1">
          <mxGeometry x="530" y="290" width="79" height="45" as="geometry" />
        </mxCell>
        <mxCell id="62nENniNwDiZzxedx9Yp-20" value="" style="shape=singleArrow;whiteSpace=wrap;html=1;fillColor=#dae8fc;strokeColor=#6c8ebf;" vertex="1" parent="1">
          <mxGeometry x="730" y="290" width="69" height="45" as="geometry" />
        </mxCell>
        <mxCell id="62nENniNwDiZzxedx9Yp-24" value="" style="verticalLabelPosition=bottom;html=1;verticalAlign=top;align=center;strokeColor=none;fillColor=#00BEF2;shape=mxgraph.azure.cloud_services_configuration_file;pointerEvents=1;" vertex="1" parent="1">
          <mxGeometry x="121" y="200" width="20" height="20" as="geometry" />
        </mxCell>
        <mxCell id="62nENniNwDiZzxedx9Yp-25" value="" style="html=1;verticalLabelPosition=bottom;align=center;labelBackgroundColor=#ffffff;verticalAlign=top;strokeWidth=2;strokeColor=#d79b00;shadow=0;dashed=0;shape=mxgraph.ios7.icons.data;fillColor=#ffe6cc;" vertex="1" parent="1">
          <mxGeometry x="250" y="211" width="60" height="69" as="geometry" />
        </mxCell>
        <mxCell id="62nENniNwDiZzxedx9Yp-28" value="" style="endArrow=none;html=1;rounded=0;" edge="1" parent="1">
          <mxGeometry relative="1" as="geometry">
            <mxPoint x="56" y="339.5" as="sourcePoint" />
            <mxPoint x="146" y="339.5" as="targetPoint" />
          </mxGeometry>
        </mxCell>
        <mxCell id="62nENniNwDiZzxedx9Yp-29" value="" style="endArrow=none;html=1;rounded=0;" edge="1" parent="1">
          <mxGeometry relative="1" as="geometry">
            <mxPoint x="231" y="339.5" as="sourcePoint" />
            <mxPoint x="330" y="339.5" as="targetPoint" />
          </mxGeometry>
        </mxCell>
        <mxCell id="62nENniNwDiZzxedx9Yp-30" value="" style="endArrow=none;html=1;rounded=0;" edge="1" parent="1">
          <mxGeometry relative="1" as="geometry">
            <mxPoint x="380" y="342" as="sourcePoint" />
            <mxPoint x="559.5" y="342" as="targetPoint" />
          </mxGeometry>
        </mxCell>
        <mxCell id="62nENniNwDiZzxedx9Yp-31" value="" style="endArrow=none;html=1;rounded=0;" edge="1" parent="1">
          <mxGeometry relative="1" as="geometry">
            <mxPoint x="609.5" y="342" as="sourcePoint" />
            <mxPoint x="708.5" y="342" as="targetPoint" />
          </mxGeometry>
        </mxCell>
        <mxCell id="62nENniNwDiZzxedx9Yp-32" value="" style="image;aspect=fixed;html=1;points=[];align=center;fontSize=12;image=img/lib/azure2/general/Folder_Blank.svg;" vertex="1" parent="1">
          <mxGeometry x="66.5" y="250" width="69" height="56.00000000000001" as="geometry" />
        </mxCell>
        <mxCell id="62nENniNwDiZzxedx9Yp-33" value="" style="verticalLabelPosition=bottom;html=1;verticalAlign=top;align=center;strokeColor=none;fillColor=#00BEF2;shape=mxgraph.azure.cloud_services_configuration_file;pointerEvents=1;" vertex="1" parent="1">
          <mxGeometry x="121" y="295" width="20" height="20" as="geometry" />
        </mxCell>
        <mxCell id="62nENniNwDiZzxedx9Yp-35" value="" style="html=1;verticalLabelPosition=bottom;align=center;labelBackgroundColor=#ffffff;verticalAlign=top;strokeWidth=2;strokeColor=#666666;shadow=0;dashed=0;shape=mxgraph.ios7.icons.data;fillColor=#f5f5f5;fontColor=#333333;" vertex="1" parent="1">
          <mxGeometry x="440" y="213" width="60" height="65" as="geometry" />
        </mxCell>
        <mxCell id="62nENniNwDiZzxedx9Yp-36" value="" style="html=1;verticalLabelPosition=bottom;align=center;labelBackgroundColor=#ffffff;verticalAlign=top;strokeWidth=2;strokeColor=#d6b656;shadow=0;dashed=0;shape=mxgraph.ios7.icons.data;fillColor=#fff2cc;" vertex="1" parent="1">
          <mxGeometry x="630" y="217.5" width="60" height="65" as="geometry" />
        </mxCell>
        <mxCell id="62nENniNwDiZzxedx9Yp-38" value="Raw Data" style="text;html=1;align=center;verticalAlign=middle;whiteSpace=wrap;rounded=0;" vertex="1" parent="1">
          <mxGeometry x="250" y="300" width="60" height="30" as="geometry" />
        </mxCell>
        <mxCell id="62nENniNwDiZzxedx9Yp-40" value="Clean, Standardized Data" style="text;html=1;align=center;verticalAlign=middle;whiteSpace=wrap;rounded=0;" vertex="1" parent="1">
          <mxGeometry x="440" y="302.5" width="60" height="30" as="geometry" />
        </mxCell>
        <mxCell id="62nENniNwDiZzxedx9Yp-41" value="Business Ready Data" style="text;html=1;align=center;verticalAlign=middle;whiteSpace=wrap;rounded=0;" vertex="1" parent="1">
          <mxGeometry x="630" y="302.5" width="60" height="30" as="geometry" />
        </mxCell>
        <mxCell id="62nENniNwDiZzxedx9Yp-46" value="&lt;b&gt;Object Type&lt;/b&gt;: CSV Files" style="text;html=1;whiteSpace=wrap;overflow=hidden;rounded=0;" vertex="1" parent="1">
          <mxGeometry x="50" y="350" width="100" height="160" as="geometry" />
        </mxCell>
        <mxCell id="62nENniNwDiZzxedx9Yp-47" value="&lt;pre style=&quot;margin-top: 0px;&quot;&gt;&lt;b style=&quot;font-family: Helvetica; white-space: normal;&quot;&gt;Object Type&lt;/b&gt;&lt;span style=&quot;font-family: Helvetica; white-space: normal;&quot;&gt;: Tables&lt;/span&gt;&lt;br&gt;&lt;/pre&gt;&lt;pre style=&quot;margin-top: 0px;&quot;&gt;&lt;span style=&quot;font-family: Helvetica; white-space: normal;&quot;&gt;&lt;b&gt;Load:&lt;/b&gt; Batch Processing, Full load, Truncate and Insert&lt;/span&gt;&lt;/pre&gt;&lt;pre style=&quot;margin-top: 0px;&quot;&gt;&lt;span style=&quot;font-family: Helvetica; white-space: normal;&quot;&gt;No Transformations&lt;/span&gt;&lt;/pre&gt;" style="text;html=1;whiteSpace=wrap;overflow=hidden;rounded=0;" vertex="1" parent="1">
          <mxGeometry x="230" y="342.5" width="110" height="147.5" as="geometry" />
        </mxCell>
        <mxCell id="62nENniNwDiZzxedx9Yp-48" value="&lt;pre style=&quot;margin-top: 0px; line-height: 100%;&quot;&gt;&lt;b style=&quot;font-family: Helvetica; white-space: normal;&quot;&gt;Object Type&lt;/b&gt;&lt;span style=&quot;font-family: Helvetica; white-space: normal;&quot;&gt;: Tables&lt;/span&gt;&lt;br&gt;&lt;/pre&gt;&lt;pre style=&quot;margin-top: 0px; line-height: 100%;&quot;&gt;&lt;span style=&quot;font-family: Helvetica; white-space: normal;&quot;&gt;&lt;b&gt;Load:&lt;/b&gt; Batch Processing, Full load, Truncate and Insert&lt;/span&gt;&lt;/pre&gt;&lt;pre style=&quot;margin-top: 0px; line-height: 100%;&quot;&gt;&lt;span style=&quot;font-family: Helvetica; white-space: normal;&quot;&gt;&lt;b&gt;Transformations: &lt;/b&gt;Data Cleaning, Standardization, Normalization, Derived Columns&lt;/span&gt;&lt;/pre&gt;&lt;pre style=&quot;margin-top: 0px; line-height: 100%;&quot;&gt;&lt;span style=&quot;font-family: Helvetica; white-space: normal;&quot;&gt;&lt;b&gt;Data Model:&lt;/b&gt; None&amp;nbsp;&lt;/span&gt;&lt;/pre&gt;" style="text;html=1;whiteSpace=wrap;overflow=hidden;rounded=0;" vertex="1" parent="1">
          <mxGeometry x="380" y="350" width="190" height="140" as="geometry" />
        </mxCell>
        <mxCell id="62nENniNwDiZzxedx9Yp-49" value="&lt;pre style=&quot;margin-top: 0px; line-height: 100%;&quot;&gt;&lt;b style=&quot;font-family: Helvetica; white-space: normal;&quot;&gt;Object Type&lt;/b&gt;&lt;span style=&quot;font-family: Helvetica; white-space: normal;&quot;&gt;: Views&lt;/span&gt;&lt;br&gt;&lt;/pre&gt;&lt;pre style=&quot;margin-top: 0px; line-height: 100%;&quot;&gt;&lt;span style=&quot;font-family: Helvetica; white-space: normal;&quot;&gt;&lt;b&gt;No Load&lt;/b&gt;&lt;/span&gt;&lt;/pre&gt;&lt;pre style=&quot;margin-top: 0px; line-height: 100%;&quot;&gt;&lt;span style=&quot;font-family: Helvetica; white-space: normal;&quot;&gt;&lt;b&gt;Transformations: &lt;/b&gt;Business Logics&lt;b&gt;&amp;nbsp;&lt;/b&gt;&lt;/span&gt;&lt;/pre&gt;&lt;pre style=&quot;margin-top: 0px; line-height: 100%;&quot;&gt;&lt;span style=&quot;font-family: Helvetica; white-space: normal;&quot;&gt;&lt;b&gt;Data Model:&lt;/b&gt; Star Schemas, Flat / Aggregated Tables&amp;nbsp;&lt;/span&gt;&lt;/pre&gt;" style="text;html=1;whiteSpace=wrap;overflow=hidden;rounded=0;" vertex="1" parent="1">
          <mxGeometry x="610" y="350" width="110" height="147.5" as="geometry" />
        </mxCell>
        <mxCell id="62nENniNwDiZzxedx9Yp-50" value="" style="editableCssRules=.*;html=1;shape=image;verticalLabelPosition=bottom;labelBackgroundColor=#ffffff;verticalAlign=top;aspect=fixed;imageAspect=0;image=data:image/svg+xml,PHN2ZyB4bWxucz0iaHR0cDovL3d3dy53My5vcmcvMjAwMC9zdmciIHhtbG5zOnY9Imh0dHBzOi8vdmVjdGEuaW8vbmFubyIgd2lkdGg9IjIwLjAwMTA0NTIyNzA1MDc4IiBoZWlnaHQ9IjIwLjAwMTA0NTIyNzA1MDc4IiBmaWxsLXJ1bGU9ImV2ZW5vZGQiIHZpZXdCb3g9IjAgMCAyMC4wMDEwNDUyMjcwNTA3OCAyMC4wMDEwNDUyMjcwNTA3OCI+JiN4YTsJPHN0eWxlIHR5cGU9InRleHQvY3NzIj4mI3hhOwkuc3Qwe2ZpbGw6I2FlY2JmYTt9JiN4YTsJLnN0MXtmaWxsOiM2NjlkZjY7fSYjeGE7CS5zdDJ7ZmlsbDojNDI4NWY0O30mI3hhOwk8L3N0eWxlPiYjeGE7CTxwYXRoIGNsYXNzPSJzdDAiIGQ9Ik00LjczIDguODN2Mi42M2E0LjkxIDQuOTEgMCAwIDAgMS43MSAxLjc0VjguODN6Ii8+JiN4YTsJPHBhdGggY2xhc3M9InN0MSIgZD0iTTcuODkgNi40MXY3LjUzQTcuNjIgNy42MiAwIDAgMCA5IDE0YTggOCAwIDAgMCAxIDBWNi40MXoiLz4mI3hhOwk8cGF0aCBjbGFzcz0ic3QwIiBkPSJNMTEuNjQgOS44NnYzLjI5YTUgNSAwIDAgMCAxLjctMS44MlY5Ljg2eiIvPiYjeGE7CTxwYXRoIGNsYXNzPSJzdDIiIGQ9Ik0xNS43NCAxNC4zMmwtMS40MiAxLjQyYS40Mi40MiAwIDAgMCAwIC42bDMuNTQgMy41NGEuNDIuNDIgMCAwIDAgLjU5IDBsMS40My0xLjQzYS40Mi40MiAwIDAgMCAwLS41OWwtMy41NC0zLjU0YS40Mi40MiAwIDAgMC0uNiAwIi8+JiN4YTsJPHBhdGggY2xhc3M9InN0MSIgZD0iTTkgMGE5IDkgMCAxIDAgMCAxOEE5IDkgMCAxIDAgOSAwbTAgMTUuNjlhNi42OCA2LjY4IDAgMCAxIC4wMDctMTMuMzYgNi42OCA2LjY4IDAgMCAxIDQuNzI3IDExLjQwM0E2LjY4IDYuNjggMCAwIDEgOSAxNS42OSIvPiYjeGE7PC9zdmc+;" vertex="1" parent="1">
          <mxGeometry x="810" y="180" width="60" height="60" as="geometry" />
        </mxCell>
        <mxCell id="62nENniNwDiZzxedx9Yp-51" value="&lt;font style=&quot;font-size: 14px;&quot;&gt;Ad - Hoc SQL Queries&lt;/font&gt;" style="text;html=1;align=center;verticalAlign=middle;whiteSpace=wrap;rounded=0;" vertex="1" parent="1">
          <mxGeometry x="795" y="255" width="90" height="30" as="geometry" />
        </mxCell>
        <mxCell id="62nENniNwDiZzxedx9Yp-56" value="" style="verticalLabelPosition=bottom;aspect=fixed;html=1;shape=mxgraph.salesforce.analytics;" vertex="1" parent="1">
          <mxGeometry x="810" y="370" width="60" height="58.8" as="geometry" />
        </mxCell>
        <mxCell id="62nENniNwDiZzxedx9Yp-58" value="Analytics &amp;amp; BI" style="text;html=1;align=center;verticalAlign=middle;resizable=0;points=[];autosize=1;strokeColor=none;fillColor=none;" vertex="1" parent="1">
          <mxGeometry x="790" y="440" width="100" height="30" as="geometry" />
        </mxCell>
        <mxCell id="62nENniNwDiZzxedx9Yp-59" value="" style="sketch=0;outlineConnect=0;fontColor=#232F3E;gradientColor=none;fillColor=#C925D1;strokeColor=none;dashed=0;verticalLabelPosition=bottom;verticalAlign=top;align=center;html=1;fontSize=12;fontStyle=0;aspect=fixed;pointerEvents=1;shape=mxgraph.aws4.rds_sql_server_instance;" vertex="1" parent="1">
          <mxGeometry x="210" y="82" width="38" height="38" as="geometry" />
        </mxCell>
      </root>
    </mxGraphModel>
  </diagram>
</mxfile>
